<?xml version="1.0" encoding="utf-8"?>
<!-- Generator: Adobe Illustrator 27.8.0, SVG Export Plug-In . SVG Version: 6.00 Build 0)  -->
<svg version="1.1" id="Ebene_1" xmlns="http://www.w3.org/2000/svg" xmlns:xlink="http://www.w3.org/1999/xlink" x="0px" y="0px"
	 viewBox="0 0 85 75.8" style="enable-background:new 0 0 85 75.8;" xml:space="preserve">
<style type="text/css">
	.st0{fill:#B7CD1F;}
	.st1{fill:#D6E189;}
	.st2{enable-background:new    ;}
	.st3{fill:#3F2564;}
</style>
<g id="Ebene_1_00000148634415900570929740000003410042361628014231_">
	<path class="st0" d="M57.6,55.3l-3.8,13.3l18.3-6.1c1.6-0.5,3.3-2.3,3.8-4l9-31.9c0.5-1.6-0.2-3.8-1.6-4.9L57.5,1.2
		c-1.3-1.1-3.8-1.5-5.4-1L28.7,8l18.3,14.6C56,29.7,60.7,44.4,57.6,55.3L57.6,55.3z"/>
	<path class="st1" d="M9.1,17.2l-9,31.9c-0.5,1.6,0.2,3.8,1.6,4.9l25.9,20.6c1.3,1.1,3.8,1.5,5.4,1l20.9-6.9l3.8-13.3
		c3.1-11-1.6-25.6-10.5-32.8L28.7,8l-15.8,5.3C11.3,13.8,9.6,15.5,9.1,17.2z"/>
</g>
<g id="Text">
	<g class="st2">
		<path class="st3" d="M40.1,45.3c0.2,0,0.4,0.1,0.6,0.3c0.2,0.2,0.3,0.4,0.3,0.6v2.3c0,0.2-0.1,0.4-0.3,0.6
			c-0.2,0.2-0.4,0.3-0.6,0.3h-14c-0.2,0-0.4-0.1-0.6-0.3c-0.2-0.2-0.3-0.4-0.3-0.6V27.7c0-0.2,0.1-0.4,0.3-0.6
			c0.2-0.2,0.4-0.3,0.6-0.3h13.8c0.2,0,0.4,0.1,0.6,0.3s0.3,0.4,0.3,0.6V30c0,0.2-0.1,0.4-0.3,0.6c-0.2,0.2-0.4,0.3-0.6,0.3H29.5V36
			h9.6c0.2,0,0.4,0.1,0.6,0.3c0.2,0.2,0.3,0.4,0.3,0.6v2.3c0,0.2-0.1,0.4-0.3,0.6c-0.2,0.2-0.4,0.3-0.6,0.3h-9.6v5.3H40.1z"/>
	</g>
	<g class="st2">
		<path class="st3" d="M53.1,42.9l5.4-15.3c0.1-0.2,0.2-0.3,0.3-0.5c0.2-0.2,0.4-0.3,0.7-0.3h2.4c0.2,0,0.4,0.1,0.6,0.3
			s0.3,0.4,0.3,0.6c0,0,0,0.1,0,0.1s0,0.1-0.1,0.2l-7.2,20.1c-0.1,0.4-0.3,0.6-0.4,0.8c-0.2,0.2-0.4,0.3-0.8,0.3h-2.6
			c-0.3,0-0.6-0.1-0.8-0.3c-0.2-0.2-0.3-0.5-0.4-0.8l-7.2-20.1c0-0.1-0.1-0.2-0.1-0.2s0-0.1,0-0.1c0-0.2,0.1-0.4,0.3-0.6
			c0.2-0.2,0.4-0.3,0.6-0.3h2.4c0.3,0,0.6,0.1,0.7,0.3c0.2,0.2,0.3,0.4,0.3,0.5L53.1,42.9z"/>
	</g>
</g>
</svg>
